PathFileType	4	(X/Y/Z)	/home/nbianco/projects/addbio/data/HamnerRunning2013/Processed/subject08//results/MarkerData/run500.trc
DataRate	CameraRate	NumFrames	NumMarkers	Units	OrigDataRate	OrigDataStartFrame	OrigNumFrames
100	100	8	42	m	100	69	184
Frame#	Time	C7			CLAV			LACR			LASI			LCAL			LFAradius			LFAsuperior			LFAulna			LLEL			LMEL			LMT5			LPSI			LTB1			LTB2			LTB3			LTH1			LTH2			LTH3			LTOE			LUA1			LUA2			LUA3			RACR			RASI			RCAL			RFAradius			RFAsuperior			RFAulna			RLEL			RMEL			RMT5			RPSI			RTB1			RTB2			RTB3			RTH1			RTH2			RTH3			RTOE			RUA1			RUA2			RUA3		
		X1	Y1	Z1	X2	Y2	Z2	X3	Y3	Z3	X4	Y4	Z4	X5	Y5	Z5	X6	Y6	Z6	X7	Y7	Z7	X8	Y8	Z8	X9	Y9	Z9	X10	Y10	Z10	X11	Y11	Z11	X12	Y12	Z12	X13	Y13	Z13	X14	Y14	Z14	X15	Y15	Z15	X16	Y16	Z16	X17	Y17	Z17	X18	Y18	Z18	X19	Y19	Z19	X20	Y20	Z20	X21	Y21	Z21	X22	Y22	Z22	X23	Y23	Z23	X24	Y24	Z24	X25	Y25	Z25	X26	Y26	Z26	X27	Y27	Z27	X28	Y28	Z28	X29	Y29	Z29	X30	Y30	Z30	X31	Y31	Z31	X32	Y32	Z32	X33	Y33	Z33	X34	Y34	Z34	X35	Y35	Z35	X36	Y36	Z36	X37	Y37	Z37	X38	Y38	Z38	X39	Y39	Z39	X40	Y40	Z40	X41	Y41	Z41	X42	Y42	Z42

70	1.08	0.666594	1.50459	-0.322011	0.79344	1.4198	-0.269129	0.765547	1.48455	-0.470925	0.755058	0.943425	-0.442692	0.321943	0.66569	-0.389585	0.816811	1.00557	-0.514443	0.771582	1.09521	-0.638277	0.792687	0.970898	-0.570163	0.719378	1.20557	-0.683421	0.646737	1.18517	-0.657714	0.198364	0.503056	-0.474251	0.570746	1.03545	-0.396881	0.608786	0.439931	-0.418553	0.542831	0.51148	-0.48605	0.414175	0.506376	-0.407531	0.705824	0.821864	-0.509699	0.768942	0.708686	-0.482907	0.695147	0.574735	-0.491996	0.218052	0.456833	-0.398254	0.736235	1.39421	-0.581138	0.660793	1.32159	-0.59182	0.717559	1.28881	-0.641797	0.698434	1.44129	-0.130691	0.72192	0.971961	-0.194615	0.540087	0.0872492	-0.312816	0.733257	0.939569	-0.030567	0.574819	1.06413	0.000462189	0.673903	0.899395	-0.0199374	0.536921	1.13621	-0.0121062	0.517458	1.11831	-0.0877566	0.726315	0.0524391	-0.186955	0.55618	1.04165	-0.31524	0.791881	0.3694	-0.237345	0.711227	0.284222	-0.200659	0.706584	0.189321	-0.271149	0.670343	0.84553	-0.137676	0.764964	0.725815	-0.144085	0.727922	0.607175	-0.168521	0.776642	0.0676815	-0.2721	0.621986	1.33315	-0.0622838	0.547581	1.26345	-0.100619	0.568739	1.22666	-0.0389823
71	1.09	0.667175	1.50392	-0.320864	0.793994	1.41805	-0.270648	0.763007	1.4828	-0.472034	0.751398	0.940539	-0.444099	0.345954	0.66005	-0.392494	0.791179	0.992802	-0.53036	0.749156	1.09278	-0.647799	0.763248	0.963608	-0.587113	0.702144	1.20837	-0.686798	0.630103	1.19039	-0.659013	0.235972	0.487506	-0.47607	0.567391	1.03558	-0.39605	0.64465	0.442327	-0.415714	0.576024	0.509705	-0.484059	0.447586	0.503003	-0.406229	0.705937	0.823516	-0.509608	0.781933	0.716483	-0.481702	0.720737	0.577961	-0.492015	0.255872	0.444939	-0.398331	0.728928	1.39419	-0.582262	0.650837	1.32412	-0.589259	0.703443	1.29123	-0.643784	0.701499	1.43891	-0.130458	0.719874	0.969157	-0.194277	0.490654	0.0899969	-0.311194	0.762399	0.941255	-0.031337	0.598517	1.05699	0.00377297	0.7055	0.897232	-0.0189508	0.556224	1.12724	-0.00773112	0.535781	1.10762	-0.0830075	0.675944	0.0520972	-0.185795	0.553809	1.0421	-0.314387	0.759108	0.360367	-0.237939	0.674352	0.279668	-0.200535	0.662619	0.186102	-0.272005	0.663036	0.843201	-0.137759	0.751566	0.719175	-0.144237	0.708256	0.601153	-0.16889	0.726525	0.066642	-0.270978	0.63089	1.32814	-0.0609219	0.560765	1.2542	-0.0987444	0.582286	1.21987	-0.0357186
72	1.1	0.667018	1.50417	-0.32051	0.794417	1.41865	-0.272575	0.75986	1.48291	-0.473761	0.748085	0.938141	-0.445762	0.366405	0.650448	-0.394284	0.764691	0.9872	-0.544927	0.725875	1.09487	-0.657422	0.733244	0.962613	-0.601469	0.683999	1.21465	-0.691085	0.612746	1.19887	-0.661121	0.274377	0.467478	-0.477342	0.564154	1.03684	-0.394643	0.680857	0.447618	-0.412599	0.608304	0.509614	-0.481592	0.480051	0.498646	-0.404323	0.703336	0.826877	-0.509774	0.794196	0.728228	-0.480434	0.746761	0.585775	-0.491487	0.294888	0.428353	-0.397741	0.720385	1.39676	-0.584003	0.639808	1.32911	-0.587622	0.688716	1.29663	-0.646379	0.704918	1.4388	-0.130953	0.718209	0.96636	-0.194179	0.440667	0.0936801	-0.3097	0.791419	0.948597	-0.0343797	0.622098	1.05452	0.00568106	0.737845	0.900796	-0.0194531	0.575239	1.1224	-0.00443378	0.553682	1.10124	-0.0793495	0.624812	0.0521064	-0.184449	0.552022	1.0433	-0.312863	0.723303	0.352847	-0.23728	0.634587	0.276709	-0.200364	0.617175	0.184236	-0.272005	0.655552	0.841362	-0.13804	0.736639	0.712947	-0.144164	0.686408	0.5963	-0.168706	0.675605	0.0660266	-0.269683	0.638628	1.3262	-0.0605821	0.572559	1.24864	-0.0985019	0.595305	1.21627	-0.0340673
73	1.11	0.665986	1.50557	-0.320738	0.794958	1.42116	-0.274835	0.756088	1.48506	-0.475732	0.745151	0.937709	-0.447497	0.384371	0.636369	-0.394385	0.738163	0.988332	-0.557289	0.70202	1.10093	-0.666591	0.703486	0.967192	-0.612725	0.665406	1.22389	-0.695876	0.594882	1.21044	-0.663918	0.313451	0.444435	-0.478082	0.560921	1.03929	-0.393193	0.715772	0.455688	-0.408807	0.639206	0.511599	-0.479153	0.511487	0.493241	-0.401858	0.699826	0.831401	-0.509977	0.804651	0.74357	-0.479338	0.771656	0.597822	-0.49025	0.335231	0.408019	-0.397031	0.710743	1.40207	-0.585969	0.627806	1.33643	-0.587179	0.674033	1.30477	-0.649465	0.708797	1.44095	-0.131725	0.717125	0.963909	-0.194355	0.39133	0.0994822	-0.308653	0.819287	0.961358	-0.0397225	0.644853	1.05612	0.0060691	0.769913	0.910203	-0.021535	0.593376	1.12088	-0.0023836	0.570739	1.09844	-0.0768291	0.573523	0.052075	-0.183655	0.551087	1.04536	-0.311058	0.685468	0.348016	-0.235405	0.592796	0.276517	-0.200156	0.57128	0.184507	-0.270782	0.647891	0.840741	-0.138425	0.720542	0.707745	-0.143903	0.662908	0.593701	-0.168447	0.624683	0.0655952	-0.268592	0.645697	1.32684	-0.0608912	0.582016	1.24616	-0.0977392	0.60807	1.2152	-0.0335941
74	1.12	0.664695	1.50851	-0.321319	0.795708	1.4253	-0.277719	0.751808	1.48918	-0.477775	0.743012	0.940846	-0.449201	0.40105	0.617524	-0.392551	0.712507	0.995312	-0.567078	0.678081	1.11046	-0.674525	0.674663	0.976503	-0.620789	0.646789	1.23562	-0.700664	0.576794	1.22478	-0.667032	0.353143	0.419202	-0.477985	0.558134	1.04333	-0.391917	0.74855	0.466099	-0.404551	0.66842	0.515409	-0.476759	0.542236	0.486524	-0.398801	0.697943	0.837367	-0.510228	0.8131	0.761488	-0.47867	0.794256	0.613305	-0.488391	0.377159	0.384938	-0.396378	0.7006	1.4099	-0.587857	0.615586	1.3464	-0.588086	0.659829	1.31535	-0.652877	0.713062	1.44526	-0.132782	0.716934	0.962394	-0.194937	0.343594	0.108315	-0.307771	0.845172	0.97877	-0.0468653	0.666294	1.06111	0.00502431	0.800685	0.92473	-0.0252513	0.610334	1.12204	-0.00160376	0.586816	1.09854	-0.0755196	0.522526	0.0519261	-0.183662	0.551361	1.04851	-0.309208	0.64665	0.346469	-0.233194	0.550384	0.279455	-0.199778	0.525832	0.187368	-0.268834	0.640552	0.841665	-0.138842	0.70366	0.70421	-0.143707	0.638101	0.593878	-0.168649	0.574164	0.0649386	-0.267884	0.652985	1.32972	-0.0615299	0.589411	1.24681	-0.0953376	0.620738	1.21651	-0.0336858
75	1.13	0.663867	1.51314	-0.322043	0.796615	1.43096	-0.281492	0.747213	1.49501	-0.479932	0.742354	0.94807	-0.450668	0.417674	0.594015	-0.388995	0.688465	1.00689	-0.574467	0.65473	1.12303	-0.680595	0.647386	0.989637	-0.625943	0.628399	1.24948	-0.704929	0.558774	1.24146	-0.669928	0.393777	0.392206	-0.476711	0.55674	1.04877	-0.390529	0.779253	0.478098	-0.400766	0.695659	0.520115	-0.474075	0.572636	0.478321	-0.395263	0.699347	0.84528	-0.510799	0.820322	0.780404	-0.478539	0.81407	0.63101	-0.486147	0.421058	0.360158	-0.395433	0.690629	1.41978	-0.58955	0.604107	1.35934	-0.590173	0.646222	1.32798	-0.656307	0.717566	1.45136	-0.134383	0.717789	0.962173	-0.195734	0.297944	0.120536	-0.306664	0.868515	0.99977	-0.0550913	0.6861	1.06891	0.00281948	0.829267	0.943207	-0.0305366	0.626024	1.12558	-0.00183423	0.601727	1.10119	-0.0753522	0.471943	0.051896	-0.184155	0.552929	1.05263	-0.307295	0.60785	0.348352	-0.231501	0.508602	0.285517	-0.199013	0.481571	0.193033	-0.266701	0.634345	0.843949	-0.139328	0.686777	0.702781	-0.143911	0.612728	0.596996	-0.169361	0.523866	0.0640765	-0.26743	0.661076	1.33453	-0.0623166	0.596029	1.25074	-0.0917376	0.633244	1.22019	-0.0338367
76	1.14	0.663688	1.51918	-0.322818	0.797562	1.43802	-0.286056	0.742527	1.50217	-0.4823	0.743622	0.958601	-0.451596	0.435505	0.566328	-0.384318	0.666473	1.02165	-0.57998	0.632562	1.13807	-0.684674	0.622206	1.00556	-0.628774	0.610317	1.26507	-0.708223	0.541088	1.25987	-0.67204	0.43602	0.363914	-0.474206	0.557681	1.0548	-0.388698	0.8082	0.49071	-0.398349	0.720772	0.524576	-0.470925	0.602928	0.468686	-0.391756	0.704147	0.855297	-0.511936	0.827353	0.798903	-0.47881	0.831138	0.649581	-0.483829	0.467277	0.334723	-0.39362	0.681212	1.4311	-0.591055	0.593867	1.37484	-0.592715	0.633137	1.3421	-0.659334	0.722232	1.45872	-0.13671	0.719646	0.963265	-0.196309	0.254873	0.135952	-0.305126	0.888957	1.02324	-0.0638357	0.704045	1.07895	-0.000159687	0.854958	0.964433	-0.0372228	0.640407	1.13128	-0.0026382	0.615124	1.10615	-0.0759686	0.421771	0.0520979	-0.184593	0.555544	1.0574	-0.305229	0.569952	0.353635	-0.23025	0.468273	0.294695	-0.197536	0.439408	0.201429	-0.26404	0.629791	0.84723	-0.140044	0.670896	0.703574	-0.144712	0.587921	0.603093	-0.170134	0.473464	0.063377	-0.267002	0.670007	1.34096	-0.0631849	0.603315	1.25749	-0.0879745	0.645511	1.22594	-0.0338431
77	1.15	0.663797	1.52607	-0.323723	0.798434	1.44618	-0.291021	0.737983	1.51021	-0.484839	0.746548	0.970802	-0.451752	0.455662	0.535229	-0.379225	0.646753	1.0382	-0.584199	0.611865	1.15479	-0.687153	0.599558	1.02311	-0.630027	0.592553	1.28181	-0.710277	0.523974	1.27927	-0.672872	0.480465	0.33497	-0.470737	0.561092	1.06068	-0.386525	0.835424	0.502921	-0.397445	0.743916	0.527861	-0.467609	0.633437	0.457811	-0.388996	0.711388	0.867162	-0.513518	0.834693	0.816341	-0.479157	0.845687	0.667756	-0.481793	0.515905	0.309565	-0.390697	0.672392	1.44331	-0.592352	0.58468	1.3917	-0.594661	0.620457	1.35709	-0.661577	0.727078	1.46673	-0.139737	0.722406	0.965513	-0.196459	0.215497	0.154145	-0.302915	0.906285	1.04812	-0.0727904	0.720018	1.09061	-0.00351524	0.877307	0.987318	-0.0451018	0.653423	1.13877	-0.00363323	0.626719	1.11306	-0.076818	0.372119	0.0523395	-0.184595	0.558797	1.06248	-0.303031	0.533753	0.362285	-0.2286	0.430018	0.306977	-0.195017	0.400605	0.212131	-0.259829	0.626771	0.851252	-0.141076	0.656562	0.706469	-0.146024	0.564652	0.61209	-0.1706	0.423202	0.0630563	-0.266518	0.679427	1.34871	-0.0641573	0.611865	1.26597	-0.0846767	0.65749	1.23318	-0.0338704
